<svg xmlns="http://www.w3.org/2000/svg" width="318" height="19" fill="none"><path fill="#545454" d="M4.5 11.454c0-.698.17-1.335.511-1.91a3.861 3.861 0 0 1 1.375-1.375 3.679 3.679 0 0 1 1.91-.511c.606 0 1.164.13 1.676.39.515.26.941.615 1.278 1.067.337.447.546.955.626 1.521H10.33c-.086-.439-.322-.797-.71-1.073a2.197 2.197 0 0 0-1.323-.422c-.426 0-.814.104-1.163.313-.35.209-.629.488-.838.837-.209.35-.313.737-.313 1.163 0 .427.104.814.313 1.164.209.35.488.628.838.837.349.21.737.313 1.163.313.494 0 .912-.138 1.253-.415.345-.281.562-.641.652-1.08h1.547a3.491 3.491 0 0 1-.595 1.527c-.315.448-.72.802-1.214 1.061-.49.26-1.038.39-1.643.39-.699 0-1.336-.17-1.911-.51a3.862 3.862 0 0 1-1.375-1.375 3.68 3.68 0 0 1-.511-1.912Zm3.733 6.75a6.602 6.602 0 0 1-2.62-.524 6.88 6.88 0 0 1-2.155-1.45 6.972 6.972 0 0 1-1.457-2.155 6.495 6.495 0 0 1-.518-2.62 6.65 6.65 0 0 1 .53-2.621c.354-.814.84-1.53 1.458-2.148A6.751 6.751 0 0 1 5.619 5.23a6.556 6.556 0 0 1 2.614-.524A6.657 6.657 0 0 1 13 6.687a6.803 6.803 0 0 1 1.451 2.147c.35.814.527 1.687.531 2.62a6.497 6.497 0 0 1-.518 2.621 6.783 6.783 0 0 1-3.605 3.605 6.619 6.619 0 0 1-2.627.524Zm0-1.482c.729 0 1.413-.137 2.052-.41a5.288 5.288 0 0 0 2.812-2.806 5.08 5.08 0 0 0 .403-2.045 5.286 5.286 0 0 0-3.222-4.864 5.127 5.127 0 0 0-2.045-.41c-.724 0-1.404.137-2.04.41A5.255 5.255 0 0 0 4.52 7.734a5.377 5.377 0 0 0-1.138 1.681 5.206 5.206 0 0 0-.415 2.046c-.004.72.13 1.4.403 2.039.272.635.65 1.193 1.131 1.675.486.481 1.046.86 1.681 1.137.64.273 1.323.41 2.052.41ZM22.888 18v-1.15l4.321-4.73c.507-.555.925-1.036 1.253-1.445.328-.414.571-.801.729-1.164.162-.366.243-.75.243-1.15 0-.46-.111-.859-.333-1.196a2.156 2.156 0 0 0-.895-.78 2.901 2.901 0 0 0-1.278-.274c-.503 0-.942.104-1.317.313-.37.205-.658.492-.863.863-.2.37-.3.805-.3 1.304h-1.509c0-.767.177-1.44.531-2.02a3.686 3.686 0 0 1 1.445-1.355c.613-.324 1.301-.486 2.064-.486.767 0 1.447.162 2.04.486.592.324 1.056.76 1.393 1.31.336.55.505 1.162.505 1.835 0 .481-.088.952-.262 1.412-.17.456-.47.966-.895 1.528-.422.558-1.008 1.24-1.758 2.046l-2.94 3.144v.103h6.085V18h-8.259Zm15.169.179c-.963 0-1.784-.262-2.461-.786-.678-.529-1.196-1.294-1.554-2.295-.358-1.006-.537-2.22-.537-3.644 0-1.414.18-2.622.537-3.624.363-1.005.883-1.772 1.56-2.3.682-.534 1.5-.8 2.455-.8.954 0 1.77.266 2.448.8.682.528 1.201 1.295 1.56 2.3.362 1.002.543 2.21.543 3.624 0 1.424-.18 2.638-.537 3.644-.358 1.001-.876 1.766-1.553 2.295-.678.524-1.498.786-2.461.786Zm0-1.406c.954 0 1.696-.46 2.224-1.381.529-.92.793-2.233.793-3.938 0-1.133-.122-2.098-.365-2.895-.238-.797-.584-1.404-1.035-1.822a2.286 2.286 0 0 0-1.617-.626c-.946 0-1.686.466-2.218 1.4-.533.929-.8 2.243-.8 3.943 0 1.134.12 2.097.358 2.89.24.792.582 1.395 1.03 1.809.451.413.995.62 1.63.62ZM45.037 18v-1.15l4.32-4.73c.508-.555.925-1.036 1.254-1.445.328-.414.57-.801.728-1.164.162-.366.243-.75.243-1.15 0-.46-.11-.859-.332-1.196a2.156 2.156 0 0 0-.895-.78 2.9 2.9 0 0 0-1.278-.274c-.503 0-.942.104-1.317.313-.371.205-.659.492-.863.863-.2.37-.3.805-.3 1.304h-1.51c0-.767.178-1.44.531-2.02a3.687 3.687 0 0 1 1.445-1.355c.614-.324 1.302-.486 2.065-.486.767 0 1.446.162 2.039.486.592.324 1.056.76 1.393 1.31.337.55.505 1.162.505 1.835 0 .481-.087.952-.262 1.412-.17.456-.469.966-.895 1.528-.422.558-1.008 1.24-1.758 2.046l-2.94 3.144v.103h6.085V18h-8.258Zm10.31-2.685v-1.304L61.1 4.91h.946v2.02h-.64l-4.346 6.878v.102h7.747v1.406h-9.46ZM61.51 18V4.909h1.509V18h-1.509Zm11.523 0H71.37l4.807-13.09h1.637L82.62 18h-1.662L77.046 6.98h-.102L73.032 18Zm.614-5.114h6.699v1.407h-6.699v-1.407ZM84.455 18V8.182h1.457v1.483h.103c.178-.486.502-.88.971-1.183a2.86 2.86 0 0 1 1.585-.454c.111 0 .25.003.416.007.166.004.292.01.377.019v1.534a4.469 4.469 0 0 0-.352-.057 3.459 3.459 0 0 0-.569-.045c-.477 0-.903.1-1.278.3-.37.196-.665.469-.882.818-.213.346-.32.74-.32 1.183V18h-1.508Zm10.387.204c-.886 0-1.664-.21-2.333-.632-.665-.422-1.185-1.012-1.56-1.77-.37-.76-.556-1.646-.556-2.66 0-1.023.186-1.915.556-2.678.375-.763.895-1.355 1.56-1.777.669-.422 1.447-.633 2.333-.633.886 0 1.662.21 2.327.633.669.422 1.189 1.014 1.56 1.777.374.763.562 1.655.562 2.678 0 1.014-.188 1.9-.563 2.66-.37.758-.89 1.348-1.56 1.77-.664.422-1.44.633-2.326.633Zm0-1.355c.673 0 1.227-.172 1.662-.517.435-.346.756-.8.965-1.362a5.213 5.213 0 0 0 .313-1.828c0-.656-.104-1.268-.313-1.835a3.092 3.092 0 0 0-.965-1.374c-.435-.35-.989-.524-1.662-.524-.673 0-1.227.175-1.662.524-.435.35-.756.808-.965 1.374a5.266 5.266 0 0 0-.313 1.835c0 .656.104 1.266.313 1.828.209.563.53 1.016.965 1.362.435.345.989.517 1.662.517Zm12.939-2.863V8.182h1.509V18h-1.509v-1.662h-.102a3.22 3.22 0 0 1-1.074 1.272c-.486.345-1.099.518-1.841.518-.614 0-1.159-.134-1.636-.403-.478-.273-.853-.682-1.125-1.227-.273-.55-.409-1.242-.409-2.078V8.183h1.508v6.136c0 .716.2 1.287.601 1.713.405.426.92.64 1.547.64.375 0 .756-.096 1.144-.288.392-.192.72-.486.984-.882.269-.397.403-.902.403-1.515Zm5.78-1.892V18h-1.508V8.182h1.457v1.534h.128a2.8 2.8 0 0 1 1.048-1.202c.469-.307 1.074-.46 1.815-.46.665 0 1.247.136 1.745.41.499.268.887.677 1.164 1.226.277.546.415 1.236.415 2.071V18h-1.508v-6.136c0-.772-.201-1.373-.601-1.803-.401-.435-.95-.652-1.649-.652a2.63 2.63 0 0 0-1.291.313 2.24 2.24 0 0 0-.889.914c-.217.4-.326.887-.326 1.458Zm12.728 6.11c-.818 0-1.54-.206-2.167-.62-.626-.417-1.116-1.005-1.47-1.764-.354-.763-.53-1.664-.53-2.704 0-1.03.176-1.926.53-2.684.354-.759.846-1.345 1.477-1.758.63-.413 1.359-.62 2.186-.62.639 0 1.144.107 1.515.32.375.208.66.447.856.715.201.265.356.482.467.652h.128V4.91h1.508V18h-1.457v-1.509h-.179a9.927 9.927 0 0 1-.473.678c-.205.268-.497.51-.876.722-.379.21-.884.314-1.515.314Zm.205-1.355c.605 0 1.116-.157 1.534-.473.417-.32.735-.76.952-1.323.218-.567.326-1.22.326-1.962 0-.733-.106-1.374-.319-1.924-.213-.554-.529-.985-.946-1.291-.418-.311-.934-.467-1.547-.467-.639 0-1.172.164-1.598.492-.422.324-.74.765-.953 1.323-.208.554-.313 1.177-.313 1.867 0 .699.107 1.334.32 1.905.217.566.537 1.018.959 1.355.426.332.954.498 1.585.498Zm11.819-10.534V4.91h9.818v1.406h-4.117V18h-1.585V6.315h-4.116Zm13.568 5.779V18h-1.508V4.91h1.508v4.806h.128c.23-.507.576-.91 1.036-1.208.464-.303 1.082-.454 1.853-.454.669 0 1.255.134 1.758.403.503.264.893.67 1.17 1.22.281.546.422 1.24.422 2.084V18h-1.509v-6.136c0-.78-.202-1.383-.607-1.81-.4-.43-.957-.645-1.668-.645-.495 0-.938.104-1.33.313a2.287 2.287 0 0 0-.92.914c-.222.4-.333.887-.333 1.458Zm13.243 6.11c-.946 0-1.762-.208-2.448-.626a4.205 4.205 0 0 1-1.579-1.764c-.366-.759-.55-1.64-.55-2.646s.184-1.892.55-2.66c.371-.77.886-1.372 1.547-1.802.665-.435 1.44-.652 2.327-.652.511 0 1.016.085 1.515.256.498.17.952.447 1.361.83.409.38.735.883.978 1.51.243.626.364 1.397.364 2.313v.64h-7.568v-1.305h6.034c0-.554-.11-1.048-.332-1.483a2.5 2.5 0 0 0-.933-1.029c-.401-.251-.874-.377-1.419-.377-.601 0-1.121.15-1.56.448a2.947 2.947 0 0 0-1.004 1.15c-.234.473-.351.98-.351 1.521v.87c0 .741.128 1.37.383 1.885.26.512.62.902 1.081 1.17.46.264.995.396 1.604.396.396 0 .754-.055 1.074-.166.324-.115.603-.285.837-.511.235-.23.416-.516.544-.857l1.457.41a3.228 3.228 0 0 1-.773 1.303c-.363.371-.81.66-1.343.87-.532.204-1.131.306-1.796.306ZM185.342 4.91h1.585v8.668c0 .895-.211 1.694-.632 2.397-.418.699-1.008 1.25-1.771 1.655-.763.4-1.658.601-2.685.601-1.027 0-1.922-.2-2.684-.6a4.476 4.476 0 0 1-1.777-1.656c-.418-.703-.627-1.502-.627-2.397V4.909h1.585v8.54c0 .64.141 1.208.422 1.707a3.03 3.03 0 0 0 1.202 1.17c.524.28 1.151.421 1.879.421.729 0 1.355-.14 1.88-.422a2.97 2.97 0 0 0 1.201-1.17c.282-.498.422-1.067.422-1.706v-8.54Zm5.031 13.193c-.316 0-.586-.113-.812-.338a1.107 1.107 0 0 1-.339-.812c0-.316.113-.586.339-.812.226-.226.496-.339.812-.339.315 0 .586.113.811.339.226.226.339.496.339.812 0 .208-.053.4-.16.575-.102.175-.24.315-.415.422-.17.102-.362.153-.575.153Zm11.221-9.92a2.008 2.008 0 0 0-.933-1.509c-.546-.358-1.215-.537-2.007-.537-.58 0-1.087.094-1.522.282-.43.187-.767.445-1.01.773a1.858 1.858 0 0 0-.358 1.119c0 .35.083.65.25.9.17.248.387.455.652.621.264.162.541.296.831.403.289.102.556.185.799.249l1.329.358c.341.09.72.213 1.138.37.422.158.825.373 1.208.646.388.269.707.614.959 1.036.251.422.377.94.377 1.553 0 .707-.185 1.347-.556 1.918-.367.57-.904 1.024-1.611 1.361-.703.337-1.557.505-2.563.505-.938 0-1.749-.151-2.435-.454-.682-.302-1.219-.724-1.611-1.265-.388-.541-.608-1.17-.659-1.886h1.637c.042.494.209.903.498 1.227.294.32.665.558 1.112.716.452.154.938.23 1.458.23.605 0 1.148-.098 1.63-.294.481-.2.863-.477 1.144-.83a1.97 1.97 0 0 0 .422-1.253c0-.435-.122-.789-.364-1.062a2.678 2.678 0 0 0-.959-.664c-.397-.17-.825-.32-1.285-.448l-1.611-.46c-1.023-.294-1.832-.714-2.429-1.26-.596-.545-.895-1.259-.895-2.14 0-.734.198-1.373.595-1.918.4-.55.937-.976 1.611-1.279.677-.306 1.433-.46 2.269-.46.843 0 1.593.151 2.25.454.656.298 1.176.707 1.559 1.227.388.52.593 1.11.614 1.77h-1.534Zm5.214 9.92c-.315 0-.586-.113-.812-.338a1.11 1.11 0 0 1-.338-.812c0-.316.113-.586.338-.812.226-.226.497-.339.812-.339.316 0 .586.113.812.339.226.226.339.496.339.812 0 .208-.053.4-.16.575a1.197 1.197 0 0 1-.415.422 1.101 1.101 0 0 1-.576.153Z"/></svg>